<?xml version="1.0" encoding="utf-8"?>
<!-- Generator: Adobe Illustrator 22.0.0, SVG Export Plug-In . SVG Version: 6.00 Build 0)  -->
<svg version="1.1" xmlns="http://www.w3.org/2000/svg" xmlns:xlink="http://www.w3.org/1999/xlink" x="0px" y="0px"
	 viewBox="0 0 178.9 334.6" style="enable-background:new 0 0 178.9 334.6;" xml:space="preserve">
<style type="text/css">
	.st0{fill:rgb(168, 71, 13);}
	.st1{fill:rgb(255, 98, 77);}
	.st2{fill:rgb(23, 110, 69);}
	.st3{fill:rgb(242, 163, 41);}
	.st4{fill:#C8C8C8;}
	.st5{display:none;}
</style>
<g id="Fondation">
	<g>

			<rect x="108" y="277.9" transform="matrix(-1 -1.224647e-16 1.224647e-16 -1 286.8406 584.1349)" class="st0" width="70.9" height="28.3"/>
		<rect x="0" transform="matrix(-1 -1.224647e-16 1.224647e-16 -1 70.8666 28.3453)" class="st1" width="70.9" height="28.3"/>

			<rect x="108" y="28.3" transform="matrix(-1 -1.224647e-16 1.224647e-16 -1 286.834 85.036)" class="st2" width="70.9" height="28.3"/>
		<rect y="306.2" transform="matrix(-1 -1.224647e-16 1.224647e-16 -1 70.8659 640.836)" class="st3" width="70.9" height="28.3"/>
		<path class="st4" d="M17,99.2h36.8v49.9H125V99.2h36.8v136.2H125V186H53.9v49.4H17V99.2z"/>
	</g>
</g>
<g id="Repères" class="st5">
</g>
</svg>
